<svg width="100" height="100" viewBox="0 0 100 100" fill="none" xmlns="http://www.w3.org/2000/svg">
<path fill-rule="evenodd" clip-rule="evenodd" d="M99.986 70H0V30H100V70H99.986Z" fill="#0058AB"/>
<path fill-rule="evenodd" clip-rule="evenodd" d="M2 50C2 59.833 22.116 68 50.007 68C77.898 68 98 59.833 98 50C98 40.167 77.884 32 50.007 32C22.131 32 2 40.167 2 50Z" fill="#FBD914"/>
<path d="M46.448 56.0052C46.763 56.4522 47.108 56.8722 47.508 57.2502H36.688C36.688 56.8302 36.272 55.9772 35.813 55.3052C34.8319 53.8564 33.8525 52.4064 32.875 50.9552V56.0052C32.875 56.4252 32.875 56.8302 33.09 57.2502H24.075C24.29 56.8302 24.29 56.4242 24.29 56.0052V44.0002C24.29 43.5802 24.29 43.1742 24.075 42.7552H33.09C32.875 43.1752 32.875 43.5802 32.875 44.0002V49.2462C32.875 49.2462 35.755 45.5812 36.415 44.7272C36.917 44.0842 37.533 43.1742 37.533 42.7552H46.935C46.29 43.1752 45.574 43.9302 44.986 44.6292L41.546 48.7292C41.546 48.7292 45.875 55.1792 46.448 56.0042V56.0052ZM49.286 44.0002V56.0042C49.286 56.4242 49.286 56.8292 49.071 57.2492H66.471V53.2192C66.041 53.4292 65.625 53.4292 65.195 53.4292H57.871V51.5272H64.908V48.4772H57.871V46.5602H65.195C65.625 46.5602 66.041 46.5602 66.471 46.7562V42.7412H49.071C49.286 43.1742 49.286 43.5812 49.286 44.0002V44.0002ZM90.578 56.0042C90.722 56.4652 90.965 56.8852 91.281 57.2492H81.85C81.893 56.8292 81.735 56.4232 81.563 56.0042C81.563 56.0042 81.42 55.6682 81.219 55.1782L81.133 54.9682H75.701L75.615 55.1922C75.615 55.1922 75.457 55.5982 75.314 56.0182C75.171 56.4382 75.013 56.8432 75.07 57.2632H67.632C67.9356 56.8962 68.1643 56.4732 68.305 56.0182L72.763 44.0142C72.92 43.5942 73.078 43.1882 73.021 42.7692H85.591C85.476 43.1892 85.705 43.5942 85.863 44.0142C86.235 44.9242 90.263 55.1922 90.578 56.0042V56.0042ZM79.943 51.9042L78.625 48.5472C78.5078 48.2368 78.4119 47.9187 78.338 47.5952C78.2807 47.9196 78.1943 48.2382 78.08 48.5472C78.037 48.6872 77.478 50.1562 76.833 51.9042H79.943ZM19.803 42.7542H10C10.215 43.1742 10.215 43.5802 10.215 44.0002V56.0042C10.215 56.4242 10.215 56.8292 10 57.2492H19.804C19.589 56.8292 19.589 56.4232 19.589 56.0042V44.0002C19.589 43.5802 19.589 43.1742 19.804 42.7552L19.803 42.7542ZM87.568 43.9022C87.525 42.8812 88.342 42.0272 89.388 41.9992H89.518C90.578 41.9852 91.452 42.7972 91.467 43.8322V43.9022C91.495 44.9522 90.65 45.8322 89.561 45.8612C88.486 45.8892 87.583 45.0632 87.554 44.0002C87.568 43.9722 87.568 43.9302 87.568 43.9022V43.9022ZM87.955 43.9022C87.955 44.7422 88.658 45.4272 89.518 45.4272C90.378 45.4272 91.08 44.7412 91.08 43.9022C91.08 43.0622 90.378 42.3772 89.518 42.3772C88.686 42.3492 87.984 42.9792 87.955 43.7902V43.9022ZM89.131 45.0352H88.787V42.7412H89.661C89.8557 42.7438 90.0415 42.8231 90.1782 42.9618C90.3148 43.1005 90.3913 43.2875 90.391 43.4822C90.391 43.7622 90.234 44.0142 89.976 44.1542L90.478 45.0352H90.091L89.632 44.2242H89.131V45.0352V45.0352ZM89.131 43.9022H89.604C89.833 43.9162 90.034 43.7482 90.034 43.5242C90.034 43.3002 89.876 43.1042 89.647 43.1042H89.131V43.9022Z" fill="#0058A3"/>
</svg>
